<?xml version="1.0" encoding="UTF-8" standalone="no"?>
<!DOCTYPE svg PUBLIC "-//W3C//DTD SVG 1.1//EN" "http://www.w3.org/Graphics/SVG/1.1/DTD/svg11.dtd">
<svg width="100%" height="100%" viewBox="0 0 1024 1024" version="1.1" xmlns="http://www.w3.org/2000/svg" xmlns:xlink="http://www.w3.org/1999/xlink" xml:space="preserve" xmlns:serif="http://www.serif.com/" style="fill-rule:evenodd;clip-rule:evenodd;stroke-linecap:round;stroke-linejoin:round;stroke-miterlimit:1.5;">
    <g transform="matrix(2.85866,0,0,2.85866,-925.495,-814.206)">
        <path d="M500.156,370.646C500.156,370.646 404.366,337.119 372.437,417.742C340.507,498.365 389.998,603.733 498.56,605.33C607.121,606.926 702.791,447.703 596.744,379.426C538.472,341.909 512.928,369.049 500.156,370.646Z" style="fill:rgb(216,61,28);"/>
        <clipPath id="_clip1">
            <path d="M500.156,370.646C500.156,370.646 404.366,337.119 372.437,417.742C340.507,498.365 389.998,603.733 498.56,605.33C607.121,606.926 702.791,447.703 596.744,379.426C538.472,341.909 512.928,369.049 500.156,370.646Z"/>
        </clipPath>
        <g clip-path="url(#_clip1)">
            <g transform="matrix(1.13289,0,0,1,-149.141,85.4123)">
                <ellipse cx="551.643" cy="358.31" rx="120.136" ry="128.954" style="fill:rgb(234,74,30);"/>
            </g>
        </g>
        <path d="M500.156,370.646C500.156,370.646 404.366,337.119 372.437,417.742C340.507,498.365 389.998,603.733 498.56,605.33C607.121,606.926 702.791,447.703 596.744,379.426C538.472,341.909 512.928,369.049 500.156,370.646Z" style="fill:none;stroke:rgb(14,87,49);stroke-width:10.23px;"/>
    </g>
    <g transform="matrix(2.09952,0,0,2.26133,-663.592,-495.332)">
        <circle cx="443.88" cy="407.764" r="26.741" style="fill:rgb(241,172,147);"/>
    </g>
    <g transform="matrix(2.85866,0,0,2.85866,-925.495,-814.206)">
        <path d="M496.963,359.667C496.963,359.667 468.226,317.961 443.481,335.523C418.735,353.084 475.81,376.233 475.81,376.233C475.81,376.233 457.051,385.014 443.481,412.953C429.91,440.891 498.371,392.996 502.856,391.4C507.34,389.803 533.682,423.33 554.437,412.953C575.191,402.575 535.279,372.242 520.91,368.251C506.542,364.26 575.191,345.9 545.656,326.742C516.121,307.584 496.963,359.667 496.963,359.667Z" style="fill:rgb(14,87,49);stroke:rgb(14,87,49);stroke-width:2.32px;"/>
    </g>
</svg>
